<svg version="1.1" viewBox="0.0 0.0 300.0 393.501312335958" fill="none" stroke="none" stroke-linecap="square" stroke-miterlimit="10" xmlns:xlink="http://www.w3.org/1999/xlink" xmlns="http://www.w3.org/2000/svg"><clipPath id="p.0"><path d="m0 0l300.0 0l0 393.5013l-300.0 0l0 -393.5013z" clip-rule="nonzero"/></clipPath><g clip-path="url(#p.0)"><path fill="#000000" fill-opacity="0.0" d="m0 0l300.0 0l0 393.5013l-300.0 0z" fill-rule="evenodd"/><path fill="#434343" d="m-15.193036 245.93893l94.74016 98.677155l-94.74016 98.677185z" fill-rule="evenodd"/><path stroke="#d6a313" stroke-width="24.0" stroke-linejoin="round" stroke-linecap="butt" d="m-15.193036 245.93893l94.74016 98.677155l-94.74016 98.677185z" fill-rule="evenodd"/><path fill="#434343" d="m314.765 147.26163l-94.74017 98.67717l94.74017 98.67717z" fill-rule="evenodd"/><path stroke="#d6a313" stroke-width="24.0" stroke-linejoin="round" stroke-linecap="butt" d="m314.765 147.26163l-94.74017 98.67717l94.74017 98.67717z" fill-rule="evenodd"/><path fill="#434343" d="m314.765 -49.523254l-94.74017 98.67717l94.74017 98.677155z" fill-rule="evenodd"/><path stroke="#d6a313" stroke-width="24.0" stroke-linejoin="round" stroke-linecap="butt" d="m314.765 -49.523254l-94.74017 98.67717l94.74017 98.677155z" fill-rule="evenodd"/><path fill="#434343" d="m-15.19284 -147.56335l94.74016 98.67716l-94.74016 98.67717z" fill-rule="evenodd"/><path stroke="#d6a313" stroke-width="24.0" stroke-linejoin="round" stroke-linecap="butt" d="m-15.19284 -147.56335l94.74016 98.67716l-94.74016 98.67717z" fill-rule="evenodd"/><path fill="#434343" d="m314.765 344.3145l-94.74017 98.677155l94.74017 98.677155z" fill-rule="evenodd"/><path stroke="#d6a313" stroke-width="24.0" stroke-linejoin="round" stroke-linecap="butt" d="m314.765 344.3145l-94.74017 98.677155l94.74017 98.677155z" fill-rule="evenodd"/><path fill="#434343" d="m-15.300631 48.853294l94.74016 98.67716l-94.74016 98.67717z" fill-rule="evenodd"/><path stroke="#d6a313" stroke-width="24.0" stroke-linejoin="round" stroke-linecap="butt" d="m-15.300631 48.853294l94.74016 98.67716l-94.74016 98.67717z" fill-rule="evenodd"/></g></svg>