<svg version="1.1" viewBox="0.0 0.0 128.0 128.0" fill="none" stroke="none" stroke-linecap="square" stroke-miterlimit="10" xmlns:xlink="http://www.w3.org/1999/xlink" xmlns="http://www.w3.org/2000/svg"><clipPath id="p.0"><path d="m0 0l128.0 0l0 128.0l-128.0 0l0 -128.0z" clip-rule="nonzero"/></clipPath><g clip-path="url(#p.0)"><path fill="#000000" fill-opacity="0.0" d="m0 0l128.0 0l0 128.0l-128.0 0z" fill-rule="evenodd"/><defs><radialGradient id="p.1" gradientUnits="userSpaceOnUse" gradientTransform="matrix(8.102244849183997 0.0 0.0 8.102244849183997 0.0 0.0)" spreadMethod="pad" cx="7.897567201912764" cy="7.903639110759534" fx="7.897567201912764" fy="7.903639110759534" r="8.10224437713623"><stop offset="0.0" stop-color="#d6a313" stop-opacity="0.0"/><stop offset="1.0" stop-color="#d6a313"/></radialGradient></defs><path fill="url(#p.1)" d="m17.804514 64.03722l0 0c0 -25.7659 20.677061 -46.65329 46.18351 -46.65329l0 0c12.248627 0 23.995583 4.915243 32.656677 13.664433c8.661087 8.749189 13.526833 20.615637 13.526833 32.988853l0 0c0 25.765907 -20.677063 46.653297 -46.18351 46.653297l0 0c-25.506447 0 -46.18351 -20.88739 -46.18351 -46.653297z" fill-rule="evenodd"/><path stroke="#d6a313" stroke-width="1.0" stroke-linejoin="round" stroke-linecap="butt" d="m17.804514 64.03722l0 0c0 -25.7659 20.677061 -46.65329 46.18351 -46.65329l0 0c12.248627 0 23.995583 4.915243 32.656677 13.664433c8.661087 8.749189 13.526833 20.615637 13.526833 32.988853l0 0c0 25.765907 -20.677063 46.653297 -46.18351 46.653297l0 0c-25.506447 0 -46.18351 -20.88739 -46.18351 -46.653297z" fill-rule="evenodd"/><path fill="#000000" fill-opacity="0.0" d="m110.31155 64.02526l0 0c0 -9.897995 -4.8789062 -19.39059 -13.563423 -26.38953c-8.684517 -6.9989395 -20.463242 -10.9309025 -32.744995 -10.9309025l0 37.320435z" fill-rule="evenodd"/><path fill="#000000" fill-opacity="0.0" d="m110.31155 64.02526l0 0c0 -9.897995 -4.8789062 -19.39059 -13.563423 -26.38953c-8.684517 -6.9989395 -20.463242 -10.9309025 -32.744995 -10.9309025" fill-rule="evenodd"/><path stroke="#d6a313" stroke-width="1.0" stroke-linejoin="round" stroke-linecap="butt" d="m110.31155 64.02526l0 0c0 -9.897995 -4.8789062 -19.39059 -13.563423 -26.38953c-8.684517 -6.9989395 -20.463242 -10.9309025 -32.744995 -10.9309025" fill-rule="evenodd"/><path fill="#000000" fill-opacity="0.0" d="m64.00313 26.704828l0 0c-25.57544 0 -46.308426 16.70893 -46.308426 37.320435l46.308426 0z" fill-rule="evenodd"/><path fill="#000000" fill-opacity="0.0" d="m64.00313 26.704828l0 0c-25.57544 0 -46.308426 16.70893 -46.308426 37.320435" fill-rule="evenodd"/><path stroke="#d6a313" stroke-width="1.0" stroke-linejoin="round" stroke-linecap="butt" d="m64.00313 26.704828l0 0c-25.57544 0 -46.308426 16.70893 -46.308426 37.320435" fill-rule="evenodd"/><path fill="#000000" fill-opacity="0.0" d="m110.31155 64.02526l0 0c0 9.897995 -4.8789062 19.390594 -13.563423 26.389534c-8.684517 6.998932 -20.463242 10.930901 -32.744995 10.930901l0 -37.320435z" fill-rule="evenodd"/><path fill="#000000" fill-opacity="0.0" d="m110.31155 64.02526l0 0c0 9.897995 -4.8789062 19.390594 -13.563423 26.389534c-8.684517 6.998932 -20.463242 10.930901 -32.744995 10.930901" fill-rule="evenodd"/><path stroke="#d6a313" stroke-width="1.0" stroke-linejoin="round" stroke-linecap="butt" d="m110.31155 64.02526l0 0c0 9.897995 -4.8789062 19.390594 -13.563423 26.389534c-8.684517 6.998932 -20.463242 10.930901 -32.744995 10.930901" fill-rule="evenodd"/><path fill="#000000" fill-opacity="0.0" d="m64.00313 101.345695l0 0c-25.57544 0 -46.308426 -16.708931 -46.308426 -37.320435l46.308426 0z" fill-rule="evenodd"/><path fill="#000000" fill-opacity="0.0" d="m64.00313 101.345695l0 0c-25.57544 0 -46.308426 -16.708931 -46.308426 -37.320435" fill-rule="evenodd"/><path stroke="#d6a313" stroke-width="1.0" stroke-linejoin="round" stroke-linecap="butt" d="m64.00313 101.345695l0 0c-25.57544 0 -46.308426 -16.708931 -46.308426 -37.320435" fill-rule="evenodd"/><path fill="#000000" fill-opacity="0.0" d="m63.98957 17.35252l0 0c-9.825489 0 -19.248554 4.915428 -26.196228 13.6649475c-6.947672 8.749516 -10.850834 20.61641 -10.850834 32.9901l37.047062 0z" fill-rule="evenodd"/><path fill="#000000" fill-opacity="0.0" d="m63.98957 17.35252l0 0c-9.825489 0 -19.248554 4.915428 -26.196228 13.6649475c-6.947672 8.749516 -10.850834 20.61641 -10.850834 32.9901" fill-rule="evenodd"/><path stroke="#d6a313" stroke-width="1.0" stroke-linejoin="round" stroke-linecap="butt" d="m63.98957 17.35252l0 0c-9.825489 0 -19.248554 4.915428 -26.196228 13.6649475c-6.947672 8.749516 -10.850834 20.61641 -10.850834 32.9901" fill-rule="evenodd"/><path fill="#000000" fill-opacity="0.0" d="m26.942509 64.00757l0 0c0 25.766869 16.586536 46.655045 37.047062 46.655045l0 -46.655045z" fill-rule="evenodd"/><path fill="#000000" fill-opacity="0.0" d="m26.942509 64.00757l0 0c0 25.766869 16.586536 46.655045 37.047062 46.655045" fill-rule="evenodd"/><path stroke="#d6a313" stroke-width="1.0" stroke-linejoin="round" stroke-linecap="butt" d="m26.942509 64.00757l0 0c0 25.766869 16.586536 46.655045 37.047062 46.655045" fill-rule="evenodd"/><path fill="#000000" fill-opacity="0.0" d="m63.98957 17.35252l0 0c9.825493 0 19.248558 4.915428 26.196228 13.6649475c6.9476776 8.749516 10.850838 20.61641 10.850838 32.9901l-37.047066 0z" fill-rule="evenodd"/><path fill="#000000" fill-opacity="0.0" d="m63.98957 17.35252l0 0c9.825493 0 19.248558 4.915428 26.196228 13.6649475c6.9476776 8.749516 10.850838 20.61641 10.850838 32.9901" fill-rule="evenodd"/><path stroke="#d6a313" stroke-width="1.0" stroke-linejoin="round" stroke-linecap="butt" d="m63.98957 17.35252l0 0c9.825493 0 19.248558 4.915428 26.196228 13.6649475c6.9476776 8.749516 10.850838 20.61641 10.850838 32.9901" fill-rule="evenodd"/><path fill="#000000" fill-opacity="0.0" d="m101.03664 64.00757l0 0c0 25.766869 -16.58654 46.655045 -37.047066 46.655045l0 -46.655045z" fill-rule="evenodd"/><path fill="#000000" fill-opacity="0.0" d="m101.03664 64.00757l0 0c0 25.766869 -16.58654 46.655045 -37.047066 46.655045" fill-rule="evenodd"/><path stroke="#d6a313" stroke-width="1.0" stroke-linejoin="round" stroke-linecap="butt" d="m101.03664 64.00757l0 0c0 25.766869 -16.58654 46.655045 -37.047066 46.655045" fill-rule="evenodd"/><defs><linearGradient id="p.2" gradientUnits="userSpaceOnUse" gradientTransform="matrix(2.8769195390334192 2.029001961978925 2.029001961978925 -2.8769195390334192 0.0 0.0)" spreadMethod="pad" x1="26.75996262936832" y1="-21.4586472342233" x2="23.88304309040713" y2="-21.458667620403123"><stop offset="0.0" stop-color="#666666"/><stop offset="0.74" stop-color="#b7b7b7"/><stop offset="1.0" stop-color="#666666"/></linearGradient></defs><path fill="url(#p.2)" d="m25.894976 110.70488l7.5508747 5.3253937l74.37305 -106.992805l-7.550873 -5.325398z" fill-rule="evenodd"/><defs><linearGradient id="p.3" gradientUnits="userSpaceOnUse" gradientTransform="matrix(2.754541321439044 1.9426924078488175 1.9426924078488175 -2.754541321439044 0.0 0.0)" spreadMethod="pad" x1="27.954074599258924" y1="-25.396936501210217" x2="25.199533277890836" y2="-25.396956272253707"><stop offset="0.0" stop-color="#666666"/><stop offset="0.74" stop-color="#b7b7b7"/><stop offset="1.0" stop-color="#666666"/></linearGradient></defs><path fill="url(#p.3)" d="m25.93266 110.60589l-2.0076904 11.021423l9.5950775 -5.6702805l2.0076904 -11.021423z" fill-rule="evenodd"/><path fill="#000000" fill-opacity="0.0" d="m25.93266 110.60589l7.587387 5.351143" fill-rule="evenodd"/><path fill="#000000" fill-opacity="0.0" d="m25.93266 110.60589l-2.0076904 11.021423l9.5950775 -5.6702805l2.0076904 -11.021423z" fill-rule="evenodd"/><path fill="#000000" fill-opacity="0.0" d="m63.992126 17.383131l0 0c-6.1408806 0 -12.030243 4.915428 -16.372501 13.664946c-4.3422546 8.749519 -6.7817116 20.616413 -6.7817116 32.9901l23.154213 0z" fill-rule="evenodd"/><path fill="#000000" fill-opacity="0.0" d="m63.992126 17.383131l0 0c-6.1408806 0 -12.030243 4.915428 -16.372501 13.664946c-4.3422546 8.749519 -6.7817116 20.616413 -6.7817116 32.9901" fill-rule="evenodd"/><path stroke="#d6a313" stroke-width="1.0" stroke-linejoin="round" stroke-linecap="butt" d="m63.992126 17.383131l0 0c-6.1408806 0 -12.030243 4.915428 -16.372501 13.664946c-4.3422546 8.749519 -6.7817116 20.616413 -6.7817116 32.9901" fill-rule="evenodd"/><path fill="#000000" fill-opacity="0.0" d="m40.837914 64.03818l0 0c0 25.766869 10.366493 46.655045 23.154213 46.655045l0 -46.655045z" fill-rule="evenodd"/><path fill="#000000" fill-opacity="0.0" d="m40.837914 64.03818l0 0c0 25.766869 10.366493 46.655045 23.154213 46.655045" fill-rule="evenodd"/><path stroke="#d6a313" stroke-width="1.0" stroke-linejoin="round" stroke-linecap="butt" d="m40.837914 64.03818l0 0c0 25.766869 10.366493 46.655045 23.154213 46.655045" fill-rule="evenodd"/><path fill="#000000" fill-opacity="0.0" d="m63.992126 17.383131l0 0c6.140877 0 12.030243 4.915428 16.372498 13.664946c4.3422546 8.749519 6.7817154 20.616413 6.7817154 32.9901l-23.154213 0z" fill-rule="evenodd"/><path fill="#000000" fill-opacity="0.0" d="m63.992126 17.383131l0 0c6.140877 0 12.030243 4.915428 16.372498 13.664946c4.3422546 8.749519 6.7817154 20.616413 6.7817154 32.9901" fill-rule="evenodd"/><path stroke="#d6a313" stroke-width="1.0" stroke-linejoin="round" stroke-linecap="butt" d="m63.992126 17.383131l0 0c6.140877 0 12.030243 4.915428 16.372498 13.664946c4.3422546 8.749519 6.7817154 20.616413 6.7817154 32.9901" fill-rule="evenodd"/><path fill="#000000" fill-opacity="0.0" d="m87.14634 64.03818l0 0c0 25.766869 -10.366493 46.655045 -23.154213 46.655045l0 -46.655045z" fill-rule="evenodd"/><path fill="#000000" fill-opacity="0.0" d="m87.14634 64.03818l0 0c0 25.766869 -10.366493 46.655045 -23.154213 46.655045" fill-rule="evenodd"/><path stroke="#d6a313" stroke-width="1.0" stroke-linejoin="round" stroke-linecap="butt" d="m87.14634 64.03818l0 0c0 25.766869 -10.366493 46.655045 -23.154213 46.655045" fill-rule="evenodd"/><path fill="#000000" fill-opacity="0.0" d="m63.997833 17.378029l0 0c-2.2108536 0 -4.3311577 4.915428 -5.8944664 13.6649475c-1.5633087 8.749519 -2.4415703 20.61641 -2.4415703 32.990097l8.336037 0z" fill-rule="evenodd"/><path fill="#000000" fill-opacity="0.0" d="m63.997833 17.378029l0 0c-2.2108536 0 -4.3311577 4.915428 -5.8944664 13.6649475c-1.5633087 8.749519 -2.4415703 20.61641 -2.4415703 32.990097" fill-rule="evenodd"/><path stroke="#d6a313" stroke-width="1.0" stroke-linejoin="round" stroke-linecap="butt" d="m63.997833 17.378029l0 0c-2.2108536 0 -4.3311577 4.915428 -5.8944664 13.6649475c-1.5633087 8.749519 -2.4415703 20.61641 -2.4415703 32.990097" fill-rule="evenodd"/><path fill="#000000" fill-opacity="0.0" d="m55.661797 64.03307l0 0c0 25.766869 3.732174 46.655045 8.336037 46.655045l0 -46.655045z" fill-rule="evenodd"/><path fill="#000000" fill-opacity="0.0" d="m55.661797 64.03307l0 0c0 25.766869 3.732174 46.655045 8.336037 46.655045" fill-rule="evenodd"/><path stroke="#d6a313" stroke-width="1.0" stroke-linejoin="round" stroke-linecap="butt" d="m55.661797 64.03307l0 0c0 25.766869 3.732174 46.655045 8.336037 46.655045" fill-rule="evenodd"/><path fill="#000000" fill-opacity="0.0" d="m63.997833 17.378029l0 0c2.2108536 0 4.3311615 4.915428 5.89447 13.6649475c1.5633087 8.749519 2.4415665 20.61641 2.4415665 32.990097l-8.336037 0z" fill-rule="evenodd"/><path fill="#000000" fill-opacity="0.0" d="m63.997833 17.378029l0 0c2.2108536 0 4.3311615 4.915428 5.89447 13.6649475c1.5633087 8.749519 2.4415665 20.61641 2.4415665 32.990097" fill-rule="evenodd"/><path stroke="#d6a313" stroke-width="1.0" stroke-linejoin="round" stroke-linecap="butt" d="m63.997833 17.378029l0 0c2.2108536 0 4.3311615 4.915428 5.89447 13.6649475c1.5633087 8.749519 2.4415665 20.61641 2.4415665 32.990097" fill-rule="evenodd"/><path fill="#000000" fill-opacity="0.0" d="m72.33387 64.03307l0 0c0 25.766869 -3.73217 46.655045 -8.336037 46.655045l0 -46.655045z" fill-rule="evenodd"/><path fill="#000000" fill-opacity="0.0" d="m72.33387 64.03307l0 0c0 25.766869 -3.73217 46.655045 -8.336037 46.655045" fill-rule="evenodd"/><path stroke="#d6a313" stroke-width="1.0" stroke-linejoin="round" stroke-linecap="butt" d="m72.33387 64.03307l0 0c0 25.766869 -3.73217 46.655045 -8.336037 46.655045" fill-rule="evenodd"/><path fill="#000000" fill-opacity="0.0" d="m110.30395 64.03614l0 0c0 -2.2271729 -4.8789062 -4.363121 -13.563423 -5.9379654c-8.684509 -1.5748482 -20.463242 -2.459587 -32.744995 -2.459587l0 8.3975525z" fill-rule="evenodd"/><path fill="#000000" fill-opacity="0.0" d="m110.30395 64.03614l0 0c0 -2.2271729 -4.8789062 -4.363121 -13.563423 -5.9379654c-8.684509 -1.5748482 -20.463242 -2.459587 -32.744995 -2.459587" fill-rule="evenodd"/><path stroke="#d6a313" stroke-width="1.0" stroke-linejoin="round" stroke-linecap="butt" d="m110.30395 64.03614l0 0c0 -2.2271729 -4.8789062 -4.363121 -13.563423 -5.9379654c-8.684509 -1.5748482 -20.463242 -2.459587 -32.744995 -2.459587" fill-rule="evenodd"/><path fill="#000000" fill-opacity="0.0" d="m63.99553 55.638588l0 0c-25.575436 0 -46.308422 3.7597122 -46.308422 8.3975525l46.308422 0z" fill-rule="evenodd"/><path fill="#000000" fill-opacity="0.0" d="m63.99553 55.638588l0 0c-25.575436 0 -46.308422 3.7597122 -46.308422 8.3975525" fill-rule="evenodd"/><path stroke="#d6a313" stroke-width="1.0" stroke-linejoin="round" stroke-linecap="butt" d="m63.99553 55.638588l0 0c-25.575436 0 -46.308422 3.7597122 -46.308422 8.3975525" fill-rule="evenodd"/><path fill="#000000" fill-opacity="0.0" d="m110.30395 64.03614l0 0c0 2.2271652 -4.8789062 4.3631134 -13.563423 5.937958c-8.684509 1.5748444 -20.463242 2.459587 -32.744995 2.459587l0 -8.397545z" fill-rule="evenodd"/><path fill="#000000" fill-opacity="0.0" d="m110.30395 64.03614l0 0c0 2.2271652 -4.8789062 4.3631134 -13.563423 5.937958c-8.684509 1.5748444 -20.463242 2.459587 -32.744995 2.459587" fill-rule="evenodd"/><path stroke="#d6a313" stroke-width="1.0" stroke-linejoin="round" stroke-linecap="butt" d="m110.30395 64.03614l0 0c0 2.2271652 -4.8789062 4.3631134 -13.563423 5.937958c-8.684509 1.5748444 -20.463242 2.459587 -32.744995 2.459587" fill-rule="evenodd"/><path fill="#000000" fill-opacity="0.0" d="m63.99553 72.433685l0 0c-25.575436 0 -46.308422 -3.7597122 -46.308422 -8.397545l46.308422 0z" fill-rule="evenodd"/><path fill="#000000" fill-opacity="0.0" d="m63.99553 72.433685l0 0c-25.575436 0 -46.308422 -3.7597122 -46.308422 -8.397545" fill-rule="evenodd"/><path stroke="#d6a313" stroke-width="1.0" stroke-linejoin="round" stroke-linecap="butt" d="m63.99553 72.433685l0 0c-25.575436 0 -46.308422 -3.7597122 -46.308422 -8.397545" fill-rule="evenodd"/><path fill="#000000" fill-opacity="0.0" d="m110.31155 64.02273l0 0c0 -6.1861877 -4.8789062 -12.119011 -13.563423 -16.493309c-8.684517 -4.374298 -20.463242 -6.831753 -32.744995 -6.831753l0 23.325062z" fill-rule="evenodd"/><path fill="#000000" fill-opacity="0.0" d="m110.31155 64.02273l0 0c0 -6.1861877 -4.8789062 -12.119011 -13.563423 -16.493309c-8.684517 -4.374298 -20.463242 -6.831753 -32.744995 -6.831753" fill-rule="evenodd"/><path stroke="#d6a313" stroke-width="1.0" stroke-linejoin="round" stroke-linecap="butt" d="m110.31155 64.02273l0 0c0 -6.1861877 -4.8789062 -12.119011 -13.563423 -16.493309c-8.684517 -4.374298 -20.463242 -6.831753 -32.744995 -6.831753" fill-rule="evenodd"/><path fill="#000000" fill-opacity="0.0" d="m64.00313 40.697666l0 0c-25.57544 0 -46.308426 10.442989 -46.308426 23.325062l46.308426 0z" fill-rule="evenodd"/><path fill="#000000" fill-opacity="0.0" d="m64.00313 40.697666l0 0c-25.57544 0 -46.308426 10.442989 -46.308426 23.325062" fill-rule="evenodd"/><path stroke="#d6a313" stroke-width="1.0" stroke-linejoin="round" stroke-linecap="butt" d="m64.00313 40.697666l0 0c-25.57544 0 -46.308426 10.442989 -46.308426 23.325062" fill-rule="evenodd"/><path fill="#000000" fill-opacity="0.0" d="m110.31155 64.02273l0 0c0 6.1861954 -4.8789062 12.119019 -13.563423 16.493317c-8.684517 4.374298 -20.463242 6.831749 -32.744995 6.831749l0 -23.325066z" fill-rule="evenodd"/><path fill="#000000" fill-opacity="0.0" d="m110.31155 64.02273l0 0c0 6.1861954 -4.8789062 12.119019 -13.563423 16.493317c-8.684517 4.374298 -20.463242 6.831749 -32.744995 6.831749" fill-rule="evenodd"/><path stroke="#d6a313" stroke-width="1.0" stroke-linejoin="round" stroke-linecap="butt" d="m110.31155 64.02273l0 0c0 6.1861954 -4.8789062 12.119019 -13.563423 16.493317c-8.684517 4.374298 -20.463242 6.831749 -32.744995 6.831749" fill-rule="evenodd"/><path fill="#000000" fill-opacity="0.0" d="m64.00313 87.34779l0 0c-25.57544 0 -46.308426 -10.442986 -46.308426 -23.325066l46.308426 0z" fill-rule="evenodd"/><path fill="#000000" fill-opacity="0.0" d="m64.00313 87.34779l0 0c-25.57544 0 -46.308426 -10.442986 -46.308426 -23.325066" fill-rule="evenodd"/><path stroke="#d6a313" stroke-width="1.0" stroke-linejoin="round" stroke-linecap="butt" d="m64.00313 87.34779l0 0c-25.57544 0 -46.308426 -10.442986 -46.308426 -23.325066" fill-rule="evenodd"/></g></svg>